# xmcd CD database file
#
# Track frame offsets:
#	150
#	20349
#	35362
#	48746
#	71117
#	96145
#	112953
#	137482
#	160231
#
# Disc length: 2552 seconds
#
# Revision: 0
# Processed by: cddbd v1.5.1PL0 Copyright (c) Steve Scherf et al.
# Submitted via: CDex 1.51
#
DISCID=7309f609
DTITLE=Peter Green - Little Dreamer
DYEAR=1900
DGENRE=Blues
TTITLE0=Loser two times
TTITLE1=Mamma don´t you cry
TTITLE2=Born under a bad sign
TTITLE3=I could not ask for more
TTITLE4=Baby when the sun goes down
TTITLE5=Walkin´the road
TTITLE6=One woman love
TTITLE7=Cryin´won´t bring you back
TTITLE8=Little dreamer
EXTD=
EXTT0=
EXTT1=
EXTT2=
EXTT3=
EXTT4=
EXTT5=
EXTT6=
EXTT7=
EXTT8=
PLAYORDER=
